# xmcd
#
# Track frame offsets: 
#        150
#        12828
#        26584
#        39216
#        53763
#        66709
#        82534
#        97004
#        111962
#        133501
#        147144
#        163788
#
# Disc length: 2403 seconds
#
# Revision: 0
# Processed by: cddbd v1.5.2PL0 Copyright (c) Steve Scherf et al.
# Submitted via: ExactAudioCopy v0.99pb5
#
DISCID=9709610c
DTITLE=Willie Nelson and Asleep at the Wheel - Willie and the Wheel
DYEAR=1900
DGENRE=Country
TTITLE0=Hesitation Blues
TTITLE1=Sweet Jennie Lee
TTITLE2=Fan It
TTITLE3=I Ain't Gonna Give Nobody None of This Jellyroll
TTITLE4=Oh! You Pretty Woman
TTITLE5=Bring It On Down to My House
TTITLE6=Right or Wrong
TTITLE7=Corrine Corrina
TTITLE8=I'm Sittin' on Top of the World
TTITLE9=Shame on You
TTITLE10=South
TTITLE11=Won't You Ride in My Little Red Wagon
EXTD=
EXTT0=
EXTT1=
EXTT2=
EXTT3=
EXTT4=
EXTT5=
EXTT6=
EXTT7=
EXTT8=
EXTT9=
EXTT10=
EXTT11=
PLAYORDER=
